<?xml version="1.0" encoding="UTF-8"?>
<svg xmlns="http://www.w3.org/2000/svg" xmlns:xlink="http://www.w3.org/1999/xlink" width="250pt" height="250pt" viewBox="0 0 250 250" version="1.1">
<g id="surface956186">
<path style=" stroke:none;fill-rule:nonzero;fill:rgb(40.784314%,81.568627%,0%);fill-opacity:1;" d="M 5 45 C 2.238281 45 0 47.238281 0 50 L 0 120.574219 C 0 151.382812 23.414062 178.15625 54.167969 179.902344 C 83.65625 181.574219 108.738281 160.882812 113.984375 133.25 C 116.835938 137.101562 119.730469 140.679688 122.65625 143.964844 L 105.011719 218.855469 C 104.664062 220.347656 105.011719 221.902344 105.957031 223.105469 C 106.910156 224.296875 108.351562 225 109.882812 225 L 135.480469 225 C 137.796875 225 139.796875 223.4375 140.332031 221.183594 C 143.4375 208.078125 148.304688 187.539062 152.714844 168.925781 L 157.265625 171.5625 C 168.089844 177.167969 179.074219 180 190 180 C 225.960938 180 254.628906 148.203125 249.375 111.25 C 245.894531 86.769531 227.070312 66.589844 202.902344 61.386719 C 174.753906 55.320312 147.625 69.746094 135.96875 93.71875 C 135.96875 93.71875 134.671875 96.59375 133.632812 99.460938 C 125.382812 85.234375 120.539062 70.46875 118 59.773438 C 117.074219 55.875 115.6875 48.8125 115.527344 48.359375 C 114.832031 46.34375 112.945312 45 110.8125 45 L 85 45 C 82.238281 45 80 47.238281 80 50 L 80 121.503906 C 80 133.25 71.4375 143.753906 59.746094 144.890625 C 46.335938 146.203125 35 135.648438 35 122.5 L 35 50 C 35 47.238281 32.761719 45 30 45 Z M 190 95 C 203.785156 95 215 106.214844 215 120 C 215 133.785156 203.785156 145 190 145 C 178.875 145 168.566406 138.292969 161.347656 132.441406 C 163.984375 121.316406 165.75 113.867188 165.78125 113.742188 C 168.621094 102.707031 178.585938 95 190 95 Z M 190 95 "/>
</g>
</svg>
