<svg xmlns="http://www.w3.org/2000/svg" width="32" height="26" viewBox="0 0 32 26">
  <path id="Icon_simple-upwork" data-name="Icon simple-upwork" d="M24.748,20.007a6.109,6.109,0,0,1-4.1-1.875l.3-1.644.011-.064c.276-1.746,1.132-4.676,3.785-4.676a3.9,3.9,0,0,1,3.6,4.13A3.9,3.9,0,0,1,24.748,20.007Zm0-12.438c-3.385,0-6.013,2.52-7.08,6.671a36.7,36.7,0,0,1-3.583-9H10.437V16.1A3.676,3.676,0,0,1,7.041,20,3.676,3.676,0,0,1,3.648,16.1V5.238H0V16.1c0,4.453,3.16,8.1,7.041,8.1s7.044-3.65,7.044-8.1V14.287a26.555,26.555,0,0,0,2.632,4.922l-2.231,12.03h3.729l1.617-8.725a8.2,8.2,0,0,0,4.915,1.695c4,0,7.252-3.747,7.252-8.327S28.748,7.57,24.748,7.57Z" transform="translate(0 -5.238)" fill="#68d000"/>
</svg>
