<svg xmlns="http://www.w3.org/2000/svg" width="30" height="30" viewBox="0 0 30 30">
  <g id="Linked-in_icon" data-name="Linked-in icon" transform="translate(-435 -3472)">
    <g id="Rectangle_1095" data-name="Rectangle 1095" transform="translate(435 3472)" fill="#0e76a8" stroke="#707070" stroke-width="1">
      <rect width="30" height="30" rx="3" stroke="none"/>
      <rect x="0.5" y="0.5" width="29" height="29" rx="2.5" fill="none"/>
    </g>
    <path id="Icon_awesome-linkedin-in" data-name="Icon awesome-linkedin-in" d="M4.813,21.5H.355V7.146H4.813ZM2.581,5.188A2.594,2.594,0,1,1,5.163,2.582,2.6,2.6,0,0,1,2.581,5.188ZM21.5,21.5H17.047V14.513c0-1.665-.034-3.8-2.317-3.8-2.317,0-2.673,1.809-2.673,3.681V21.5H7.6V7.146H11.88V9.1h.062A4.684,4.684,0,0,1,16.16,6.786c4.511,0,5.34,2.971,5.34,6.829V21.5Z" transform="translate(439 3475.999)" fill="#fff"/>
  </g>
</svg>
